<svg width="24" height="26" viewBox="0 0 24 26" fill="none" xmlns="http://www.w3.org/2000/svg">
<path d="M8.75385 21.5758C3.21538 23.2879 3.21538 18.7223 1 18.1516M16.5077 25V20.5828C16.5492 20.0385 16.4779 19.4914 16.2984 18.9777C16.1188 18.4641 15.8352 17.9957 15.4665 17.6037C18.9446 17.2042 22.6 15.846 22.6 9.61392C22.5997 8.02032 22.0048 6.48785 20.9385 5.33366C21.4434 3.93945 21.4077 2.39838 20.8388 1.03058C20.8388 1.03058 19.5317 0.631091 16.5077 2.71986C13.9689 2.01084 11.2927 2.01084 8.75385 2.71986C5.72985 0.631091 4.42277 1.03058 4.42277 1.03058C3.85383 2.39838 3.81813 3.93945 4.32308 5.33366C3.24876 6.49641 2.65326 8.04274 2.66154 9.64816C2.66154 15.8346 6.31692 17.1928 9.79508 17.638C9.43064 18.026 9.14958 18.4888 8.97019 18.9961C8.79079 19.5035 8.71708 20.0441 8.75385 20.5828V25" stroke="#1F1F1F" stroke-width="1.5" stroke-linecap="round" stroke-linejoin="round"/>
</svg>
