<svg width="26" height="25" viewBox="0 0 26 25" fill="none" xmlns="http://www.w3.org/2000/svg">
<path d="M9.30481 23.9417C9.31107 23.0335 9.31107 22.1254 9.31734 21.2173C9.31734 20.4594 9.3236 19.7079 9.3236 18.95C9.3236 17.6097 9.32986 16.2632 9.32986 14.9229C9.32986 13.9521 9.33612 12.9876 9.33612 12.0168C9.33612 11.0335 9.32986 10.0502 9.3236 9.06694C9.3236 8.91036 9.31734 8.75379 9.31107 8.59721C9.31107 8.55963 9.31107 8.51579 9.31107 8.47821C9.37997 8.45942 14.3528 8.45316 14.4593 8.47195C14.4593 9.17967 14.4593 9.8874 14.4593 10.6014C14.4656 10.6014 14.4718 10.6076 14.4781 10.6076C14.4969 10.5826 14.5157 10.5575 14.5345 10.5262C14.8163 10.1003 15.1357 9.70577 15.5178 9.3613C16.1253 8.81015 16.833 8.4469 17.6347 8.25274C18.2171 8.11496 18.8059 8.07111 19.4008 8.09617C19.9896 8.12122 20.5658 8.2089 21.1294 8.39679C22.5073 8.84773 23.5157 9.73708 24.1795 11.0273C24.4927 11.6411 24.6994 12.2924 24.8309 12.9626C24.8998 13.3133 24.9436 13.664 24.975 14.021C24.9812 14.0899 24.9812 14.1651 24.9812 14.234C24.9812 14.2715 24.9937 14.3091 25 14.3404C25 17.5408 25 20.735 25 23.9354C23.2902 23.9354 21.5741 23.9354 19.8643 23.9354C19.8643 23.9041 19.8643 23.8728 19.8643 23.8415C19.8643 21.1045 19.8643 18.3613 19.8643 15.6243C19.8643 15.236 19.8393 14.8477 19.7704 14.4594C19.7015 14.0774 19.595 13.7141 19.4134 13.3697C19.1754 12.9124 18.8309 12.5617 18.3486 12.355C18.0668 12.236 17.7724 12.1734 17.4656 12.1546C17.1461 12.1358 16.8267 12.1609 16.5198 12.2423C15.9374 12.3989 15.4676 12.7308 15.0981 13.2068C14.8476 13.5325 14.6472 13.8895 14.547 14.2903C14.4781 14.5847 14.4593 14.8853 14.4593 15.1859C14.4593 18.0669 14.4593 20.9479 14.4593 23.8352C14.4593 23.8665 14.4593 23.8978 14.4593 23.9292C12.737 23.9417 11.0209 23.9417 9.30481 23.9417Z" stroke="#1F1F1F" stroke-width="1.2" stroke-miterlimit="10"/>
<path d="M1.3194 23.9417C1.3194 23.9041 1.3194 23.8602 1.3194 23.8227C1.3194 18.7496 1.3194 13.6765 1.3194 8.60345C1.3194 8.55961 1.3194 8.51577 1.3194 8.47192C3.04174 8.47192 4.75155 8.47192 6.46762 8.47192C6.46762 8.52203 6.46762 8.56587 6.46762 8.60345C6.46762 11.2277 6.46762 13.8519 6.46762 16.4698C6.46762 18.9187 6.46762 21.3738 6.46762 23.8227C6.46762 23.8602 6.47389 23.9041 6.47389 23.9417C4.75781 23.9417 3.03547 23.9417 1.3194 23.9417Z" stroke="#1F1F1F" stroke-width="1.2" stroke-miterlimit="10"/>
<path d="M4.22547 1.00626C4.31315 1.01879 4.39457 1.03132 4.48225 1.04384C4.98956 1.119 5.45303 1.30063 5.8476 1.6263C6.3048 1.99582 6.58664 2.47182 6.72443 3.04175C6.86221 3.63048 6.8309 4.20668 6.58664 4.76409C6.27975 5.46555 5.74113 5.92276 5.02714 6.17954C4.67641 6.3048 4.31315 6.35491 3.94363 6.36117C3.43006 6.36743 2.93528 6.28601 2.47182 6.05428C1.68894 5.66597 1.21921 5.0334 1.05637 4.17536C1.03758 4.09395 1.01879 4.01253 1 3.93111C1 3.762 1 3.5929 1 3.4238C1.01879 3.33612 1.03758 3.2547 1.05637 3.16701C1.17537 2.54071 1.47599 2.02088 1.97704 1.62004C2.3904 1.29436 2.86013 1.11273 3.3737 1.03758C3.45511 1.02505 3.53653 1.01253 3.61795 1C3.82463 1.00626 4.02505 1.00626 4.22547 1.00626Z" stroke="#1F1F1F" stroke-width="1.2" stroke-miterlimit="10"/>
</svg>
